<?xml version="1.0" encoding="UTF-8" standalone="no"?>
<svg
   xmlns:dc="http://purl.org/dc/elements/1.1/"
   xmlns:cc="http://creativecommons.org/ns#"
   xmlns:rdf="http://www.w3.org/1999/02/22-rdf-syntax-ns#"
   xmlns:svg="http://www.w3.org/2000/svg"
   xmlns="http://www.w3.org/2000/svg"
   xmlns:sodipodi="http://sodipodi.sourceforge.net/DTD/sodipodi-0.dtd"
   xmlns:inkscape="http://www.inkscape.org/namespaces/inkscape"
   viewBox="0 0 586 559"
   version="1.1"
   id="svg4"
   sodipodi:docname="gitlab.svg"
   inkscape:version="0.92.4 (unknown)">
  <metadata
     id="metadata10">
    <rdf:RDF>
      <cc:Work
         rdf:about="">
        <dc:format>image/svg+xml</dc:format>
        <dc:type
           rdf:resource="http://purl.org/dc/dcmitype/StillImage" />
      </cc:Work>
    </rdf:RDF>
  </metadata>
  <defs
     id="defs8" />
  <sodipodi:namedview
     pagecolor="#ffffff"
     bordercolor="#666666"
     borderopacity="1"
     objecttolerance="10"
     gridtolerance="10"
     guidetolerance="10"
     inkscape:pageopacity="0"
     inkscape:pageshadow="2"
     inkscape:window-width="640"
     inkscape:window-height="480"
     id="namedview6"
     showgrid="false"
     inkscape:zoom="0.42218247"
     inkscape:cx="293"
     inkscape:cy="279.5"
     inkscape:window-x="2574"
     inkscape:window-y="94"
     inkscape:window-maximized="0"
     inkscape:current-layer="svg4" />
  <path
     d="m 522.69916,306.33863 -24.2405,-66.18939 a 10.525121,9.3535065 0 0 0 -0.58625,-1.78104 L 449.24146,105.33516 A 19.332412,17.180405 0 0 0 430.7816,93.619053 19.005204,16.889623 0 0 0 412.53987,105.43209 l -46.35416,126.7691 H 219.88379 L 173.46147,105.43209 A 19.005204,16.889623 0 0 0 155.30155,93.619053 h -0.10907 A 19.386945,17.228868 0 0 0 136.78716,105.44421 L 88.115288,238.63475 c 0,0.12116 -0.109069,0.21808 -0.14997,0.33924 l -24.676772,67.37676 a 27.662526,24.583245 0 0 0 10.047945,27.51531 L 286.53835,471.53948 a 10.906861,9.6927523 0 0 0 12.88374,-0.0605 L 512.66485,333.86606 a 27.648893,24.571128 0 0 0 10.03431,-27.52743 M 204.01431,251.65939 263.44308,414.20685 120.78134,251.65939 m 201.8451,162.58382 56.98833,-155.83525 2.45406,-6.74857 h 83.30114 L 336.3009,398.60153 m 94.67156,-280.69001 41.75963,114.28967 H 389.14464 M 359.10988,251.5867 317.70471,364.82228 293.00066,432.25961 226.98689,251.5867 m -71.88984,-133.67518 41.84144,114.28967 h -83.53292 m -27.239885,85.98683 a 5.8760712,5.2219706 0 0 1 -2.126837,-5.852 l 18.323522,-50.03883 134.38616,153.10914 m 263.10075,-97.21831 -150.59648,97.18197 0.50445,-0.58157 133.88171,-152.49123 18.32354,50.0146 a 5.8760712,5.2219706 0 0 1 -2.11322,5.86412"
     id="path2"
     inkscape:connector-curvature="0"
     style="stroke-width:1.28523779" />
</svg>
